<svg width="24" height="24" viewBox="0 0 24 24" fill="none" xmlns="http://www.w3.org/2000/svg">
<g clip-path="url(#clip0_2805_32653)">
<path d="M10.5 16.5L14 20L10.5 23.5" stroke="white" stroke-width="1.5"/>
<path d="M19.3333 19.1088C19.9693 18.9277 20.5387 18.7233 21.0283 18.5C22.2711 17.9331 23 17.2436 23 16.5C23 14.567 18.0751 13 12 13C5.92487 13 1 14.567 1 16.5C1 18.433 5.92487 20 12 20H13" stroke="white" stroke-width="1.5"/>
<path d="M3.72345 6.635C3.73811 7.229 3.88478 7.66167 4.16345 7.933C4.44211 8.20433 4.84545 8.34 5.37345 8.34C5.60078 8.34 5.81711 8.307 6.02245 8.241C6.22778 8.175 6.40745 8.07967 6.56145 7.955C6.71545 7.823 6.83645 7.66533 6.92445 7.482C7.01245 7.29133 7.05645 7.07867 7.05645 6.844C7.05645 6.37467 6.90978 6.02267 6.61645 5.788C6.33045 5.546 5.87578 5.425 5.25245 5.425C5.17911 5.425 5.10578 5.425 5.03245 5.425C4.95911 5.425 4.88578 5.42867 4.81245 5.436V4.6C4.89311 4.61467 4.97378 4.622 5.05445 4.622C5.14245 4.622 5.23045 4.622 5.31845 4.622C5.78045 4.622 6.13978 4.51933 6.39645 4.314C6.66045 4.10133 6.79245 3.78233 6.79245 3.357C6.79245 2.961 6.65311 2.66033 6.37445 2.455C6.09578 2.24233 5.75845 2.136 5.36245 2.136C5.09845 2.136 4.87111 2.17633 4.68045 2.257C4.49711 2.33767 4.34311 2.45133 4.21845 2.598C4.10111 2.74467 4.01311 2.92067 3.95445 3.126C3.89578 3.324 3.86278 3.54767 3.85545 3.797H2.90945C2.90945 2.983 3.11845 2.35967 3.53645 1.927C3.96178 1.487 4.58511 1.267 5.40645 1.267C5.72911 1.267 6.03345 1.311 6.31945 1.399C6.61278 1.487 6.86578 1.61533 7.07845 1.784C7.29845 1.95267 7.47078 2.16533 7.59545 2.422C7.72745 2.67133 7.79345 2.96467 7.79345 3.302C7.79345 4.094 7.46345 4.62567 6.80345 4.897V4.919C7.66145 5.21967 8.09045 5.821 8.09045 6.723C8.09045 7.12633 8.02078 7.482 7.88145 7.79C7.74211 8.098 7.54778 8.35833 7.29845 8.571C7.04911 8.77633 6.75578 8.934 6.41845 9.044C6.08111 9.154 5.71078 9.209 5.30745 9.209C4.50078 9.209 3.87745 9 3.43745 8.582C2.99745 8.15667 2.75911 7.50767 2.72245 6.635H3.72345ZM12.1011 9.209C11.2065 9.209 10.5245 8.89367 10.0551 8.263C9.59315 7.63233 9.36215 6.679 9.36215 5.403C9.36215 4.90433 9.40615 4.40933 9.49415 3.918C9.58948 3.42667 9.74715 2.98667 9.96715 2.598C10.1871 2.202 10.4805 1.883 10.8471 1.641C11.2138 1.39167 11.6721 1.267 12.2221 1.267C12.5228 1.267 12.8051 1.31467 13.0691 1.41C13.3405 1.50533 13.5788 1.64467 13.7841 1.828C13.9895 2.004 14.1545 2.22033 14.2791 2.477C14.4038 2.72633 14.4698 3.00867 14.4771 3.324H13.5311C13.3845 2.532 12.9408 2.136 12.2001 2.136C11.8555 2.136 11.5658 2.23133 11.3311 2.422C11.0965 2.60533 10.9058 2.84 10.7591 3.126C10.6198 3.412 10.5171 3.72367 10.4511 4.061C10.3925 4.391 10.3631 4.70267 10.3631 4.996L10.3851 5.018C10.7958 4.38733 11.4081 4.072 12.2221 4.072C12.5741 4.072 12.8968 4.13433 13.1901 4.259C13.4835 4.37633 13.7365 4.545 13.9491 4.765C14.1691 4.97767 14.3378 5.23433 14.4551 5.535C14.5798 5.83567 14.6421 6.16567 14.6421 6.525C14.6421 6.90633 14.5835 7.262 14.4661 7.592C14.3488 7.91467 14.1801 8.197 13.9601 8.439C13.7401 8.681 13.4725 8.868 13.1571 9C12.8418 9.13933 12.4898 9.209 12.1011 9.209ZM10.4951 6.624C10.4951 6.866 10.5318 7.09333 10.6051 7.306C10.6858 7.51133 10.7958 7.691 10.9351 7.845C11.0818 7.999 11.2541 8.12 11.4521 8.208C11.6501 8.296 11.8738 8.34 12.1231 8.34C12.3725 8.34 12.5925 8.29233 12.7831 8.197C12.9738 8.10167 13.1315 7.97333 13.2561 7.812C13.3808 7.65067 13.4761 7.46367 13.5421 7.251C13.6081 7.03833 13.6411 6.811 13.6411 6.569C13.6411 6.09967 13.5018 5.711 13.2231 5.403C12.9518 5.095 12.5705 4.941 12.0791 4.941C11.5805 4.941 11.1918 5.09867 10.9131 5.414C10.6345 5.722 10.4951 6.12533 10.4951 6.624ZM18.5979 9.209C18.0699 9.209 17.6335 9.09167 17.2889 8.857C16.9515 8.62233 16.6802 8.318 16.4749 7.944C16.2769 7.57 16.1375 7.14833 16.0569 6.679C15.9835 6.20233 15.9469 5.722 15.9469 5.238C15.9469 4.754 15.9872 4.27367 16.0679 3.797C16.1485 3.32033 16.2879 2.895 16.4859 2.521C16.6839 2.147 16.9515 1.84633 17.2889 1.619C17.6335 1.38433 18.0699 1.267 18.5979 1.267C19.1185 1.267 19.5475 1.38433 19.8849 1.619C20.2295 1.84633 20.5009 2.147 20.6989 2.521C20.9042 2.895 21.0472 3.32033 21.1279 3.797C21.2085 4.27367 21.2489 4.754 21.2489 5.238C21.2489 5.72933 21.2085 6.21333 21.1279 6.69C21.0472 7.16667 20.9042 7.592 20.6989 7.966C20.5009 8.34 20.2295 8.64067 19.8849 8.868C19.5475 9.09533 19.1185 9.209 18.5979 9.209ZM18.5979 8.34C19.1259 8.34 19.5255 8.087 19.7969 7.581C20.0755 7.06767 20.2149 6.28667 20.2149 5.238C20.2149 4.19667 20.0755 3.41933 19.7969 2.906C19.5255 2.39267 19.1259 2.136 18.5979 2.136C18.0772 2.136 17.6775 2.39267 17.3989 2.906C17.1202 3.41933 16.9809 4.19667 16.9809 5.238C16.9809 6.24267 17.1165 7.01267 17.3879 7.548C17.6665 8.076 18.0699 8.34 18.5979 8.34Z" fill="white"/>
<circle cx="23" cy="2" r="1" fill="white"/>
</g>
<defs>
<clipPath id="clip0_2805_32653">
<rect width="24" height="24" fill="white"/>
</clipPath>
</defs>
</svg>
