<svg width="24" height="24" viewBox="0 0 24 24" fill="none" xmlns="http://www.w3.org/2000/svg">
<path d="M21.25 12C21.25 12.4216 21.0449 13.0922 20.5667 13.9099C20.1002 14.7077 19.4149 15.5747 18.5588 16.3753C16.8372 17.9853 14.5114 19.25 12 19.25C9.48859 19.25 7.1628 17.9853 5.44121 16.3753C4.58509 15.5747 3.89983 14.7077 3.43329 13.9099C2.95513 13.0922 2.75 12.4216 2.75 12C2.75 11.5784 2.95513 10.9079 3.43329 10.0901C3.89983 9.29227 4.58509 8.42532 5.44121 7.62472C7.1628 6.01474 9.48859 4.75 12 4.75C14.5114 4.75 16.8372 6.01474 18.5588 7.62472C19.4149 8.42532 20.1002 9.29227 20.5667 10.0901C21.0449 10.9079 21.25 11.5784 21.25 12Z" stroke="white" stroke-width="1.5"/>
<circle cx="12" cy="12" r="3.25" stroke="white" stroke-width="1.5"/>
<path d="M2 2L22 22" stroke="white" stroke-width="1.5"/>
</svg>
