<svg width="16" height="16" viewBox="0 0 16 16" fill="none" xmlns="http://www.w3.org/2000/svg">
<path opacity="0.1" fill-rule="evenodd" clip-rule="evenodd" d="M15 3.99976L8 0L1 4V12L8 16L15 11.9998V3.99976ZM10.5981 7.99976C10.5981 7.07155 10.1029 6.21386 9.29904 5.74976C8.49519 5.28565 7.50481 5.28565 6.70096 5.74976C5.89711 6.21386 5.40192 7.07155 5.40192 7.99976C5.40192 8.92796 5.89711 9.78565 6.70096 10.2498C7.50481 10.7139 8.49519 10.7139 9.29904 10.2498C10.1029 9.78565 10.5981 8.92796 10.5981 7.99976Z" fill="white"/>
<path d="M8 4L11.5 5.99988V9.99988L8 12L4.5 10V6L8 4Z" fill="#42FF60"/>
</svg>
