<svg width="24" height="24" viewBox="0 0 24 24" fill="none" xmlns="http://www.w3.org/2000/svg">
<path fill-rule="evenodd" clip-rule="evenodd" d="M12 1C18.0758 1 23 5.92422 23 12C23 18.0758 18.0758 23 12 23C5.92422 23 1 18.0758 1 12C1 5.92422 5.92422 1 12 1Z" fill="url(#paint0_radial_2022_11803)"/>
<path d="M7.99097 9.4949C10.2039 7.33357 13.796 7.33357 16.0089 9.4949L16.2753 9.75701C16.3871 9.86443 16.3871 10.0406 16.2753 10.148L15.3644 11.0375C15.3085 11.0933 15.2183 11.0933 15.1625 11.0375L14.7972 10.6808C13.2503 9.17263 10.7496 9.17263 9.20269 10.6808L8.81167 11.0633C8.75581 11.1191 8.66558 11.1191 8.60972 11.0633L7.69878 10.1738C7.58706 10.0664 7.58706 9.89021 7.69878 9.78279L7.99097 9.4949ZM17.8953 11.334L18.7074 12.1246C18.8191 12.232 18.8191 12.4082 18.7074 12.5156L15.0507 16.0863C14.939 16.1937 14.7585 16.1937 14.6511 16.0863L12.0558 13.5511C12.03 13.5254 11.9828 13.5254 11.957 13.5511L9.36167 16.0863C9.24995 16.1937 9.06948 16.1937 8.96206 16.0863L5.29253 12.5156C5.18081 12.4082 5.18081 12.232 5.29253 12.1246L6.10464 11.334C6.21636 11.2265 6.39683 11.2265 6.50425 11.334L9.09956 13.8691C9.12534 13.8949 9.17261 13.8949 9.19839 13.8691L11.7937 11.334C11.9054 11.2265 12.0859 11.2265 12.1933 11.334L14.7886 13.8691C14.8144 13.8949 14.8617 13.8949 14.8875 13.8691L17.4828 11.334C17.6031 11.2265 17.7835 11.2265 17.8953 11.334Z" fill="white"/>
<defs>
<radialGradient id="paint0_radial_2022_11803" cx="0" cy="0" r="1" gradientUnits="userSpaceOnUse" gradientTransform="translate(1.00007 12.0003) scale(22)">
<stop stop-color="#5D9DF6"/>
<stop offset="1" stop-color="#006FFF"/>
</radialGradient>
</defs>
</svg>
